<?xml version="1.0" encoding="utf-8"?>
<!-- Generator: Adobe Illustrator 19.0.0, SVG Export Plug-In . SVG Version: 6.00 Build 0)  -->
<svg version="1.1" id="Layer_1" xmlns="http://www.w3.org/2000/svg" xmlns:xlink="http://www.w3.org/1999/xlink" x="0px" y="0px"
	 viewBox="1219 -870.3 3398.7 2301.3" style="enable-background:new 1219 -870.3 3398.7 2301.3;" xml:space="preserve">
<g>
	<g>
		<path d="M2598-427c-21.6,9.9-41,18.7-61.4,27.9c-5.9-34.8-12.2-71.8-18.4-108.9c-2.5-14.7-4.6-29.5-7.3-44.2
			c-2.5-13.8-10.1-20.1-24.3-20.2c-72.4-0.1-144.8-0.1-217.2,0c-15.5,0-22.4,6.1-24.9,21c-8.5,51.2-17.1,102.4-25.2,153.6
			c-2.7,16.9-12.3,27.2-28.1,31.6c-49,13.7-95.5,33.4-140,58.1c-13,7.2-25.6,6.7-38.2-2.4c-41.9-30.1-84.1-60-126.3-89.8
			c-15.9-11.2-24.4-10.3-38.2,3.5c-48.9,48.8-97.7,97.7-146.5,146.6c-15.2,15.3-15.6,23.9-2.8,41.7c28.9,40.5,57.5,81.2,86.7,121.4
			c10.3,14.2,10,27.1,3,43c-19.4,43.6-38,87.6-55,132.1c-7.4,19.5-17.1,31-39.1,34c-46.3,6.3-92.2,15.4-138.3,22.9
			c-26.3,4.3-30.8,9-30.8,35.4c0,69.1,0,138.2,0,207.3c0,17.4,5,23.3,22.4,26.3c50.2,8.6,100.3,17.1,150.6,25.3
			c17,2.8,28.4,11.2,33,28c13.6,49.5,33.9,96.3,58.6,141.2c7.7,14,4.8,26.8-4.2,39.3c-28.8,39.9-57.4,80.1-86,120.2
			c-14.2,19.9-13.5,27.8,3.7,45c47.8,47.8,95.7,95.6,143.5,143.4c15.6,15.6,23.4,16.3,41.6,3.3c39.4-28.1,78.9-55.9,117.8-84.6
			c16.7-12.3,31.3-12.2,50.2-3.5c43.3,19.9,87.6,37.8,132.2,54.7c17.9,6.8,27.6,16.5,30.5,35.7c7.6,50.3,16.4,100.5,24.9,150.7
			c2.4,13.9,10.1,20.5,24.1,20.6c72.9,0.1,145.7,0.1,218.6,0c14,0,21.4-6.6,23.7-20.8c8.8-52.5,17.5-105,25.9-155.5
			c18.6,14.3,37.7,29,59.1,45.5c-6.8,40.8-13.4,86-21.9,130.9c-7,36.8-48.9,65.5-80.4,64.7c-76.6-1.8-153.3-2.1-229.8,0.1
			c-38.2,1.1-77.4-34.1-83-68.7c-7.2-44.7-14.7-89.5-22.7-134.1c-0.8-4.7-5.7-10.4-10.2-12.4c-34.4-14.9-69.3-28.6-103.6-43.7
			c-7.4-3.2-11.8-2.4-17.5,1.8c-34.6,25-69.6,49.5-104,74.8c-36.6,26.9-83.1,24.8-115.3-7.1c-53.1-52.5-106-105.4-158.4-158.6
			c-31-31.4-33.2-77.4-7.2-113.2c25.6-35.3,50.9-70.9,75.8-106.8c2.5-3.6,3-10.5,1.4-14.7c-14-35.3-28.5-70.3-43.6-105.2
			c-1.9-4.5-7.6-9.5-12.2-10.3c-42.8-7.6-85.8-14-128.6-21.5c-34.7-6-58.9-25.5-70.6-59.2c-1.8-5.1-2.6-10.9-2.6-16.3
			c-0.2-79.4-0.1-158.9-0.1-238.3c0-40.9,28.6-74.4,72.1-82.3c42.8-7.8,85.8-13.9,128.6-21.5c5.1-0.9,11.4-6,13.4-10.7
			c15-34.4,29.2-69,43-103.9c1.8-4.5,1.5-11.9-1.1-15.7c-25-36.3-50.6-72.3-76.3-108.2c-24.7-34.4-23.4-79.6,6-109.8
			c53.4-54.9,107.6-109.1,162.5-162.6c29.9-29.2,77.1-30.9,111.5-6.3c35.2,25.1,70.2,50.4,105.7,75c4.3,3,12.3,4.1,17.1,2.2
			c35.3-13.7,70.4-28.2,105.2-43.2c4.1-1.7,8.3-7.5,9.1-11.9c7.6-43.3,15.4-86.5,21.4-130.1c5.4-38.7,45.9-74.2,85.2-73
			c75.6,2.4,151.4,2.2,227,0.1c39.4-1.1,77,33.7,82.8,67.2c8.2,46.9,15.6,94,23.3,141C2598.2-427.3,2598-425.9,2598-427z"/>
		<path d="M2544.6,213.2c-34.5-19-68.9-26.8-105.3-25.2c-69.5,3.2-117,46.8-124.7,116c-4.8,43.2,0.3,84.8,30.7,119.1
			c33.9,38.2,78.4,44.3,125.3,37.1c24.6-3.8,48.4-13.4,73.9-20.7c0,25.1,0.4,52.1-0.5,79c-0.1,3.6-6.7,8.5-11.2,10.1
			c-61.1,21.3-123.1,24.7-185.6,7.3c-47.5-13.2-83-42.5-107.9-84.9c-15.5-26.4-23.7-55.2-26.4-85.4c-5.9-66.7,4.3-129.5,48.6-182.8
			c52.7-63.4,122.8-83.3,201.9-77.4c23.7,1.8,47.3,7,70.7,11.7c4,0.8,9.9,6.7,10,10.4C2545,155.1,2544.6,182.8,2544.6,213.2z"/>
		<path d="M4044.3,234.1c35.3,0,68.9,0,104.3,0c10.9,35.7,21.9,71.9,32.9,108.1c11,36.3,22,72.6,33.2,109.3
			c6.4-21.3,12.9-42.9,19.6-64.5c14.7-48,29.4-95.9,44.5-143.8c1.2-3.8,6-9.2,9.3-9.3c28.5-0.7,57-0.4,87.2-0.4
			c-14.2,38.1-27.8,74.4-41.4,110.8c-27.9,74.2-55.6,148.4-83.8,222.5c-11.4,30-26.4,58.1-49.7,81c-38.1,37.3-83.8,40.3-132.4,28.5
			c-3.2-0.8-7.5-5.9-7.6-9.1c-0.7-21.9-0.4-43.9-0.4-65.1c14.3,2.6,27.3,6.3,40.6,7.2c23,1.6,39.7-9.3,49.4-30.2
			c4.7-10.2,9.9-20.3,13.2-31c1.9-6.1,2.4-14,0.1-19.8c-37.6-93.6-75.8-186.9-113.8-280.3C4047.6,243.7,4046.2,239.4,4044.3,234.1z"
			/>
		<path d="M3717.9,538.2c-31.1,0-61.4,0-93.8,0c0-5.5,0-10.5,0-15.4c0-49.8,0.2-99.6-0.2-149.4c-0.1-12.6-1.2-25.4-4-37.7
			c-4.1-18-14.2-31.7-33.8-35.4c-21-4-39,1.1-52.9,18.3c-11.9,14.7-15,32.1-15,50.2c-0.2,51.2-0.1,102.4-0.1,153.6c0,5,0,10,0,15.8
			c-31.9,0-62.2,0-93.5,0c0-101.3,0-202.1,0-303.8c30.7,0,61.4,0,92.9,0c0,14.5,0,28.5,0,46.6c4.7-5.6,7.2-8.4,9.4-11.3
			c29.9-38.5,79.9-53.8,126.4-38.8c32.1,10.4,50.5,33.5,58.3,65.1c4.1,16.7,6.4,34.3,6.7,51.5c0.8,60.1,0.3,120.3,0.3,180.4
			C3718.7,531.1,3718.2,534.3,3717.9,538.2z"/>
		<path d="M3370.1,413.5c-68.7,0-133.4,0-197.9,0c-4.2,28.9,17.8,56.2,50.6,62.5c35.5,6.8,70,2.8,103.1-12.4
			c4.5-2.1,9.1-4.3,15.6-7.4c0,22.2,0.3,42.7-0.3,63.2c-0.1,2.6-3.9,6.4-6.8,7.6c-61.7,24.3-124.1,29.7-185.8,1.3
			c-31.7-14.6-52.9-40.6-62.8-74.1c-16.9-56.8-15.6-112.8,18.1-163.6c49-74,145-78.2,201.7-45.8c33,18.9,52,49.1,58.3,85.7
			C3368.4,357,3368.1,384.4,3370.1,413.5z M3279.5,354.2c2.4-38.6-14.9-61.7-47.3-63.8c-31.8-2-59.9,26.7-61.9,63.8
			C3206.8,354.2,3243.2,354.2,3279.5,354.2z"/>
		<path d="M4023.4,453.4c0,24,0.2,46.8-0.3,69.6c-0.1,2.8-3.4,6.5-6.2,8.1c-62.8,36.7-173.1,12.9-215.9-46.6
			c-71.1-98.6-7.2-243.5,113.3-256.5c31.9-3.5,63.7-3.1,95,6c10.6,3.1,15,8.4,14.4,20.1c-1.1,21-0.3,42.2-0.3,64.4
			c-50.3-24.5-99.2-35-138.5,15.3c-23.2,29.6-21.3,84.5,2.9,111C3928.6,489.2,3975.2,476.5,4023.4,453.4z"/>
		<path d="M2852.7,234.3c31.4,0,61.7,0,92.8,0c0,17.1,0,33.4,0,49.7c0.7,0.3,1.5,0.6,2.2,1c2.6-4.5,5.2-8.9,7.6-13.4
			c17.4-31.7,46.1-46.6,81.7-43.1c10,1,15,3.9,14.6,15.4c-1,23.4-0.4,46.9-0.5,70.4c0,0.8-0.7,1.6-1.6,3.3
			c-4.6-1.6-9.3-3.4-14.1-4.8c-46.8-12.8-84.2,12.7-87.5,62c-2.5,36.9-1.4,74.1-1.8,111.2c-0.2,16.9,0,33.7,0,51.8
			c-31.4,0-62,0-93.4,0C2852.7,436.9,2852.7,336.2,2852.7,234.3z"/>
		<path d="M2807.9,318.1c-6.9-2.3-11.7-4.2-16.6-5.5c-45-11.7-80.4,11.6-85.9,57.8c-2.3,19.5-2,39.4-2.2,59
			c-0.4,34.8-0.2,69.5-0.3,104.3c0,0.9-0.4,1.8-0.8,4c-30.3,0-60.9,0-92.2,0c0-101.1,0-201.9,0-303.4c30.7,0,61,0,92.4,0
			c0,16.9,0,33.6,0,50.3c0.8,0.3,1.6,0.5,2.4,0.8c3.2-5.8,6.3-11.7,9.7-17.5c18.4-30.8,46.1-42.4,81-39.4
			c9.2,0.8,12.9,4.5,12.7,14.2C2807.5,267.1,2807.9,291.5,2807.9,318.1z"/>
	</g>
</g>
</svg>
